<svg xmlns="http://www.w3.org/2000/svg" version="1.1" xmlns:xlink="http://www.w3.org/1999/xlink"
    xmlns:svgjs="http://svgjs.dev/svgjs" viewBox="0 0 2400 800" opacity="0.2">
    <defs>
        <linearGradient x1="50%" y1="0%" x2="50%" y2="100%" id="sssurf-grad">
            <stop stop-color="hsl(153, 39%, 30%)" stop-opacity="1" offset="0%"></stop>
            <stop stop-color="hsl(208, 74%, 93%)" stop-opacity="1" offset="100%"></stop>
        </linearGradient>
    </defs>
    <g fill="url(#sssurf-grad)" transform="matrix(1,0,0,1,0,-130.94625854492188)">
        <path
            d="M 0 301.9172831472704 Q 226.93003345063585 450 400 352.9816170199509 Q 630.1167508738644 450 800 256.89255767416716 Q 1092.2917008966342 450 1200 332.60196002294435 Q 1344.7770461848618 450 1600 280.5010311432902 Q 1896.988751295668 450 2000 269.9203839349388 Q 2263.780169150305 450 2400 291.19683560290827 L 2400 800 L 0 800 L 0 363.56832366558376 Z"
            transform="matrix(1,0,0,1,0,45)" opacity="0.05"></path>
        <path
            d="M 0 301.9172831472704 Q 226.93003345063585 450 400 352.9816170199509 Q 630.1167508738644 450 800 256.89255767416716 Q 1092.2917008966342 450 1200 332.60196002294435 Q 1344.7770461848618 450 1600 280.5010311432902 Q 1896.988751295668 450 2000 269.9203839349388 Q 2263.780169150305 450 2400 291.19683560290827 L 2400 800 L 0 800 L 0 363.56832366558376 Z"
            transform="matrix(1,0,0,1,0,90)" opacity="0.19"></path>
        <path
            d="M 0 301.9172831472704 Q 226.93003345063585 450 400 352.9816170199509 Q 630.1167508738644 450 800 256.89255767416716 Q 1092.2917008966342 450 1200 332.60196002294435 Q 1344.7770461848618 450 1600 280.5010311432902 Q 1896.988751295668 450 2000 269.9203839349388 Q 2263.780169150305 450 2400 291.19683560290827 L 2400 800 L 0 800 L 0 363.56832366558376 Z"
            transform="matrix(1,0,0,1,0,135)" opacity="0.32"></path>
        <path
            d="M 0 301.9172831472704 Q 226.93003345063585 450 400 352.9816170199509 Q 630.1167508738644 450 800 256.89255767416716 Q 1092.2917008966342 450 1200 332.60196002294435 Q 1344.7770461848618 450 1600 280.5010311432902 Q 1896.988751295668 450 2000 269.9203839349388 Q 2263.780169150305 450 2400 291.19683560290827 L 2400 800 L 0 800 L 0 363.56832366558376 Z"
            transform="matrix(1,0,0,1,0,180)" opacity="0.46"></path>
        <path
            d="M 0 301.9172831472704 Q 226.93003345063585 450 400 352.9816170199509 Q 630.1167508738644 450 800 256.89255767416716 Q 1092.2917008966342 450 1200 332.60196002294435 Q 1344.7770461848618 450 1600 280.5010311432902 Q 1896.988751295668 450 2000 269.9203839349388 Q 2263.780169150305 450 2400 291.19683560290827 L 2400 800 L 0 800 L 0 363.56832366558376 Z"
            transform="matrix(1,0,0,1,0,225)" opacity="0.59"></path>
        <path
            d="M 0 301.9172831472704 Q 226.93003345063585 450 400 352.9816170199509 Q 630.1167508738644 450 800 256.89255767416716 Q 1092.2917008966342 450 1200 332.60196002294435 Q 1344.7770461848618 450 1600 280.5010311432902 Q 1896.988751295668 450 2000 269.9203839349388 Q 2263.780169150305 450 2400 291.19683560290827 L 2400 800 L 0 800 L 0 363.56832366558376 Z"
            transform="matrix(1,0,0,1,0,270)" opacity="0.73"></path>
        <path
            d="M 0 301.9172831472704 Q 226.93003345063585 450 400 352.9816170199509 Q 630.1167508738644 450 800 256.89255767416716 Q 1092.2917008966342 450 1200 332.60196002294435 Q 1344.7770461848618 450 1600 280.5010311432902 Q 1896.988751295668 450 2000 269.9203839349388 Q 2263.780169150305 450 2400 291.19683560290827 L 2400 800 L 0 800 L 0 363.56832366558376 Z"
            transform="matrix(1,0,0,1,0,315)" opacity="0.86"></path>
        <path
            d="M 0 301.9172831472704 Q 226.93003345063585 450 400 352.9816170199509 Q 630.1167508738644 450 800 256.89255767416716 Q 1092.2917008966342 450 1200 332.60196002294435 Q 1344.7770461848618 450 1600 280.5010311432902 Q 1896.988751295668 450 2000 269.9203839349388 Q 2263.780169150305 450 2400 291.19683560290827 L 2400 800 L 0 800 L 0 363.56832366558376 Z"
            transform="matrix(1,0,0,1,0,360)" opacity="1.00"></path>
    </g>
</svg> 